<?xml version="1.0" encoding="UTF-8"?>
<svg id="Layer_1" xmlns="http://www.w3.org/2000/svg" version="1.1" viewBox="0 0 484.5 126.2">
  <!-- Generator: Adobe Illustrator 30.2.0, SVG Export Plug-In . SVG Version: 2.1.1 Build 105)  -->
  <defs>
    <style>
      .st0 {
        fill: #fff;
      }

      .st1 {
        fill: #0075ff;
      }
    </style>
  </defs>
  <g id="Option_2">
    <g>
      <path class="st0" d="M83.6,38.6l-14,73.7c-.4,2.3-2.4,3.9-4.7,3.9H28.8c-2.3,0-4.3-1.6-4.7-3.9L10.1,38.6c-.3-1.4.1-2.8,1-3.9.9-1.1,2.3-1.7,3.7-1.7h33.2l4.1-22.1c0-.5.5-.9,1.1-.9h6.1c.7,0,1.2.6,1.1,1.3l-5.6,29.8H18.8l12.7,66.9h30.5l12.7-66.9h-10.5l1.5-8.1h13c1.4,0,2.8.6,3.7,1.7.9,1.1,1.3,2.5,1,3.9Z"/>
      <g>
        <rect class="st0" x="113" y="59.8" width="9.4" height="56.3"/>
        <path class="st0" d="M166.8,83c-1.7-3.1-4.1-5.5-7.2-7.3-3.1-1.8-6.7-2.6-10.7-2.6s-7.7.9-10.9,2.7c-3.2,1.8-5.7,4.4-7.5,7.7-1.7,3.3-2.6,7.1-2.6,11.4s.9,8.2,2.7,11.5c1.8,3.3,4.3,5.9,7.5,7.7,3.2,1.8,6.8,2.7,10.8,2.7s9.3-1.3,12.7-3.9c3-2.2,5.1-5.1,6.4-8.5h-10.5c-.6.9-1.4,1.6-2.3,2.2-1.6,1.1-3.8,1.7-6.3,1.7s-5.7-1-7.9-2.9c-1.8-1.7-2.9-3.8-3.4-6.6h31.3v-1.3c.3-1.4.4-2.8.4-4.1,0-3.8-.8-7.3-2.5-10.4ZM137.8,90.5c.5-2.6,1.6-4.7,3.3-6.3,2.1-1.9,4.5-2.8,7.5-2.8s4,.4,5.7,1.3c1.7.8,2.9,2,3.9,3.6.8,1.2,1.2,2.7,1.4,4.3h-21.8Z"/>
        <path class="st0" d="M231.1,116.1v-23.8c0-3.6-.9-6.3-2.5-8.1-1.7-1.8-3.9-2.7-6.9-2.7s-5.3.9-7.1,2.8c-1.8,1.9-2.7,4.8-2.7,8.5v23.2h-9.4v-23.8c0-3.6-.9-6.3-2.5-8.1-1.7-1.8-3.9-2.7-6.9-2.7s-5.3.9-7.1,2.8c-1.8,1.9-2.7,4.8-2.7,8.5v23.2h-9.4v-42.4h9.4v3.2c.9-.8,2-1.6,3.2-2.1,2.4-1.2,5-1.8,7.9-1.8s6.8.8,9.5,2.4c2,1.2,3.7,2.8,4.9,4.7,1.2-1.9,2.8-3.4,4.8-4.6,2.8-1.7,5.9-2.5,9.3-2.5s6.3.7,8.9,2.1c2.6,1.4,4.8,3.5,6.3,6.3,1.5,2.8,2.3,6.1,2.3,10v24.7h-9.4Z"/>
        <path class="st0" d="M266.7,116.7c-3.9,0-7.6-.9-10.8-2.7-3.2-1.8-5.8-4.4-7.6-7.7-1.8-3.3-2.7-7.2-2.7-11.5s.9-8.1,2.8-11.4c1.9-3.3,4.5-5.9,7.7-7.7,3.2-1.8,6.9-2.7,10.9-2.7s7.6.9,10.9,2.7c3.3,1.8,5.9,4.4,7.7,7.7,1.9,3.3,2.8,7.1,2.8,11.5s-1,8.2-2.9,11.5c-1.9,3.3-4.6,5.9-7.9,7.7-3.3,1.8-7,2.7-10.9,2.7ZM266.9,81.6c-2.2,0-4.1.5-5.9,1.5-1.7.9-3.2,2.4-4.2,4.4-1.1,2-1.6,4.5-1.6,7.4s.5,5.5,1.6,7.5c1.1,2,2.4,3.4,4.2,4.4,1.7,1,3.7,1.4,5.8,1.4s4.1-.5,6-1.5c1.8-1,3.3-2.5,4.4-4.4,1.1-2,1.7-4.5,1.7-7.4s-.6-5.4-1.7-7.4c-1.1-2-2.6-3.4-4.3-4.4-1.8-1-3.8-1.5-5.9-1.5Z"/>
        <path class="st0" d="M322.8,116.1v-23.8c0-3.5-.9-6.3-2.6-8.1-1.7-1.8-4-2.7-7-2.7s-5.4.9-7.2,2.8c-1.8,1.9-2.7,4.7-2.7,8.5v23.3h-9.4v-42.4h9.4v3.2c1-.8,2-1.6,3.2-2.1,2.4-1.2,5.1-1.8,8-1.8,5.2,0,9.4,1.6,12.7,4.8,3.3,3.2,4.9,7.8,4.9,13.6v24.7h-9.4Z"/>
        <path class="st0" d="M357.3,116.7c-3.8,0-7.2-.9-10.3-2.8-3.1-1.9-5.5-4.5-7.2-7.8-1.7-3.3-2.6-7.1-2.6-11.3s.9-8.1,2.6-11.3c1.8-3.3,4.2-5.9,7.3-7.7,3.1-1.8,6.5-2.7,10.3-2.7s7,.8,9.7,2.4c1.3.8,2.5,1.7,3.5,2.7v-4.5h9.5v42.4h-9.5v-4.6c-1.1,1-2.3,2-3.7,2.8-2.8,1.6-6.1,2.5-9.7,2.5ZM358.7,81.6c-2.2,0-4.2.5-6,1.5-1.8,1-3.2,2.5-4.3,4.5-1.1,2-1.6,4.4-1.6,7.1s.6,5.2,1.6,7.2c1.1,2,2.5,3.5,4.3,4.6,1.8,1,3.8,1.6,6,1.6s4.2-.5,6-1.6c1.8-1,3.3-2.6,4.3-4.6,1.1-2,1.6-4.4,1.6-7.2s-.5-5.1-1.6-7.1c-1.1-2-2.5-3.5-4.3-4.5-1.8-1-3.8-1.6-6-1.6Z"/>
        <path class="st0" d="M405.8,116.7c-3.8,0-7.2-.9-10.3-2.8-3.1-1.9-5.5-4.5-7.3-7.9-1.7-3.3-2.6-7.1-2.6-11.3s.9-8.1,2.6-11.3c1.8-3.3,4.2-5.9,7.3-7.7,3.1-1.8,6.6-2.7,10.4-2.7s6.4.8,9.3,2.3c1.5.8,2.8,1.7,4,2.8v-18.3h9.5v56.3h-9.5v-4.6c-1,1-2.2,2-3.6,2.8-2.8,1.6-6,2.5-9.7,2.5ZM407.1,81.6c-2.2,0-4.2.5-6,1.5-1.8,1-3.2,2.5-4.3,4.5-1.1,2-1.6,4.4-1.6,7.1s.5,5.2,1.6,7.2c1.1,2,2.5,3.5,4.3,4.6,1.8,1,3.8,1.6,6,1.6s4.2-.5,6-1.6c1.8-1,3.3-2.6,4.3-4.6,1.1-2,1.6-4.4,1.6-7.2s-.5-5.1-1.6-7.1c-1.1-2-2.5-3.5-4.3-4.5-1.8-1-3.8-1.6-6-1.6Z"/>
        <g>
          <path class="st0" d="M78.9,22.9h-10.6l1.8-9.8c.6-3.2-.2-6.6-2.4-9.1-2.1-2.5-5.2-4-8.5-4h-6.1c-5.3,0-9.9,3.8-10.9,9l-2.6,13.9H14.8c-4.4,0-8.5,1.9-11.4,5.3-2.8,3.4-4,7.8-3.2,12.2l14,73.7c1.4,6.9,7.5,12,14.5,12h36.1c7.1,0,13.2-5.1,14.5-12l14-73.7c.8-4.3-.3-8.8-3.1-12.1-2.8-3.4-7-5.4-11.4-5.4Z"/>
          <path class="st0" d="M478.8,79.1c-2.6-4.7-5.2-7.6-9.9-10.3-4.6-2.6-8-5.9-13.7-5.9s-11.1,1.3-15.8,3.9c-.2.1-.5.3-.7.4v-7.5c0-5.5-4.5-9.9-10-9.9h-9.5c-5.5,0-10,4.4-10,9.9v3.4c-1.1-.1-2.1-.2-3.2-.2-5.6,0-10.8,1.4-15.4,4.1-.6.4-1.2.8-1.8,1.2-1.8-2.8-4.9-4.6-8.4-4.6h-9.5c-1.4,0-2.7.3-3.8.8-2.9-.9-6.1-1.4-9.4-1.4-5.6,0-10.7,1.4-15.4,4.1-2.4,1.4-4.5,3.1-6.3,5-.5-.6-1-1.1-1.5-1.6-5.1-4.9-11.9-7.6-19.7-7.6s-5.6.4-8.3,1.2c-1-.3-2-.5-3-.5h-9.4c-3.6,0-6.8,1.9-8.6,4.8-.8-.6-1.7-1.1-2.6-1.6-4.7-2.6-10-3.9-15.7-3.9s-10.9,1.3-15.7,3.9c-2.7,1.5-5.1,3.3-7.1,5.4-2.1-2.5-4.6-4.6-7.6-6.2-4.1-2.1-8.6-3.2-13.6-3.2s-9.8,1.2-14,3.7c-4.3-2.5-9.2-3.7-14.5-3.7s-5.5.4-8.1,1.2c-.9-.3-1.9-.4-3-.4h-9.4c-3.3,0-6.3,1.6-8.1,4.1-.5-.3-.9-.6-1.4-.9-4.6-2.6-9.9-3.9-15.6-3.9s-11.1,1.3-15.8,3.9c-.2.1-.5.3-.7.4v-7.5c0-5.5-4.5-9.9-10-9.9h-9.4c-5.5,0-10,4.4-10,9.9h0v46.7s4.5,19.1,10,19.1h9.4c3.6,0,6.8-1.9,8.5-4.8.7.5,1.5,1,2.3,1.4,4.7,2.6,10,4,15.7,4s12.2-1.6,17.1-4.7c1.8,2.5,4.7,4.1,8.1,4.1h9.4c4.5,0,8.3-3,9.6-7.1,1.2,4.1,5.1,7.1,9.6,7.1h9.4c4.5,0,8.3-3,9.6-7.1,1.2,4.1,5.1,7.1,9.6,7.1h9.4c3.6,0,6.7-1.8,8.4-4.6.7.5,1.4.9,2.1,1.3,4.7,2.6,10,4,15.7,4s11-1.3,15.7-3.9c1-.5,1.9-1.1,2.8-1.7,1.7,3,5,5,8.7,5h9.4c4.8,0,8.8-3.3,9.8-7.7,1,4.4,5,7.7,9.8,7.7h9.4c3.5,0,6.6-1.8,8.4-4.5.4.3.9.6,1.4.9,4.6,2.8,9.9,4.2,15.5,4.2s6.5-.5,9.4-1.4c1.2.5,2.5.8,3.9.8h9.5c3.6,0,6.7-1.9,8.5-4.7.5.4,1.1.7,1.7,1.1,4.7,2.8,9.9,4.2,15.5,4.2s6.5-.5,9.4-1.4c1.2.5,2.5.8,3.9.8h9.5c3.6,0,6.8-1.9,8.5-4.8.7.5,1.5,1,2.2,1.4,4.7,2.6,10,4,15.7,4s10.6-6.2,15.7-10.1c4.6-3.4,6.9-4.9,8.8-10.2.5-1.5,1.2-3.6,1-5.1.5-1-1.5-2.3-1.4-3.5l.7-3.4c.2-1.7,2.1-.6,2.1-2.2,0-5.5-.9-8.1-3.4-12.7Z"/>
          <path class="st0" d="M113,126.1c-5.5,0-10-4.5-10-10h-24.1c0,0,10.8-56.3,10.8-56.3h13.3c0-5.5,4.5-10,10-10h9.4c5.5,0,10,4.5,10,10v56.3c0,5.5-4.5,10-10,10h-9.4Z"/>
          <circle class="st0" cx="452.9" cy="94.5" r="31.6"/>
        </g>
        <path class="st0" d="M473,83c-1.7-3.1-4.1-5.5-7.2-7.3-3.1-1.8-6.7-2.6-10.7-2.6s-7.7.9-10.9,2.7c-3.2,1.8-5.7,4.4-7.5,7.7-1.7,3.3-2.6,7.1-2.6,11.4s.9,8.2,2.7,11.5c1.8,3.3,4.3,5.9,7.5,7.7,3.2,1.8,6.8,2.7,10.8,2.7s9.3-1.3,12.7-3.9c3-2.2,5.1-5.1,6.4-8.5h-10.5c-.6.9-1.4,1.6-2.3,2.2-1.6,1.1-3.8,1.7-6.3,1.7s-5.7-1-7.9-2.9c-1.8-1.7-2.9-3.8-3.4-6.6h31.3v-1.3c.3-1.4.4-2.8.4-4.1,0-3.8-.8-7.3-2.5-10.4ZM444,90.5c.5-2.6,1.6-4.7,3.3-6.3,2.1-1.9,4.5-2.8,7.5-2.8s4,.4,5.7,1.3c1.7.8,2.9,2,3.9,3.6.8,1.2,1.2,2.7,1.4,4.3h-21.8Z"/>
      </g>
    </g>
    <g>
      <path class="st1" d="M83.6,38.6l-14,73.7c-.4,2.3-2.4,3.9-4.7,3.9H28.8c-2.3,0-4.3-1.6-4.7-3.9L10.1,38.6c-.3-1.4.1-2.8,1-3.9.9-1.1,2.3-1.7,3.7-1.7h33.2l4.1-22.1c0-.5.5-.9,1.1-.9h6.1c.7,0,1.2.6,1.1,1.3l-5.6,29.8H18.8l12.7,66.9h30.5l12.7-66.9h-10.5l1.5-8.1h13c1.4,0,2.8.6,3.7,1.7.9,1.1,1.3,2.5,1,3.9Z"/>
      <g>
        <rect class="st1" x="113" y="59.8" width="9.4" height="56.3"/>
        <path class="st1" d="M166.8,83c-1.7-3.1-4.1-5.5-7.2-7.3-3.1-1.8-6.7-2.6-10.7-2.6s-7.7.9-10.9,2.7c-3.2,1.8-5.7,4.4-7.5,7.7-1.7,3.3-2.6,7.1-2.6,11.4s.9,8.2,2.7,11.5c1.8,3.3,4.3,5.9,7.5,7.7,3.2,1.8,6.8,2.7,10.8,2.7s9.3-1.3,12.7-3.9c3-2.2,5.1-5.1,6.4-8.5h-10.5c-.6.9-1.4,1.6-2.3,2.2-1.6,1.1-3.8,1.7-6.3,1.7s-5.7-1-7.9-2.9c-1.8-1.7-2.9-3.8-3.4-6.6h31.3v-1.3c.3-1.4.4-2.8.4-4.1,0-3.8-.8-7.3-2.5-10.4ZM137.8,90.5c.5-2.6,1.6-4.7,3.3-6.3,2.1-1.9,4.5-2.8,7.5-2.8s4,.4,5.7,1.3c1.7.8,2.9,2,3.9,3.6.8,1.2,1.2,2.7,1.4,4.3h-21.8Z"/>
        <path class="st1" d="M231.1,116.1v-23.8c0-3.6-.9-6.3-2.5-8.1-1.7-1.8-3.9-2.7-6.9-2.7s-5.3.9-7.1,2.8c-1.8,1.9-2.7,4.8-2.7,8.5v23.2h-9.4v-23.8c0-3.6-.9-6.3-2.5-8.1-1.7-1.8-3.9-2.7-6.9-2.7s-5.3.9-7.1,2.8c-1.8,1.9-2.7,4.8-2.7,8.5v23.2h-9.4v-42.4h9.4v3.2c.9-.8,2-1.6,3.2-2.1,2.4-1.2,5-1.8,7.9-1.8s6.8.8,9.5,2.4c2,1.2,3.7,2.8,4.9,4.7,1.2-1.9,2.8-3.4,4.8-4.6,2.8-1.7,5.9-2.5,9.3-2.5s6.3.7,8.9,2.1c2.6,1.4,4.8,3.5,6.3,6.3,1.5,2.8,2.3,6.1,2.3,10v24.7h-9.4Z"/>
        <path class="st1" d="M266.7,116.7c-3.9,0-7.6-.9-10.8-2.7-3.2-1.8-5.8-4.4-7.6-7.7-1.8-3.3-2.7-7.2-2.7-11.5s.9-8.1,2.8-11.4c1.9-3.3,4.5-5.9,7.7-7.7,3.2-1.8,6.9-2.7,10.9-2.7s7.6.9,10.9,2.7c3.3,1.8,5.9,4.4,7.7,7.7,1.9,3.3,2.8,7.1,2.8,11.5s-1,8.2-2.9,11.5c-1.9,3.3-4.6,5.9-7.9,7.7-3.3,1.8-7,2.7-10.9,2.7ZM266.9,81.6c-2.2,0-4.1.5-5.9,1.5-1.7.9-3.2,2.4-4.2,4.4-1.1,2-1.6,4.5-1.6,7.4s.5,5.5,1.6,7.5c1.1,2,2.4,3.4,4.2,4.4,1.7,1,3.7,1.4,5.8,1.4s4.1-.5,6-1.5c1.8-1,3.3-2.5,4.4-4.4,1.1-2,1.7-4.5,1.7-7.4s-.6-5.4-1.7-7.4c-1.1-2-2.6-3.4-4.3-4.4-1.8-1-3.8-1.5-5.9-1.5Z"/>
        <path class="st1" d="M322.8,116.1v-23.8c0-3.5-.9-6.3-2.6-8.1-1.7-1.8-4-2.7-7-2.7s-5.4.9-7.2,2.8c-1.8,1.9-2.7,4.7-2.7,8.5v23.3h-9.4v-42.4h9.4v3.2c1-.8,2-1.6,3.2-2.1,2.4-1.2,5.1-1.8,8-1.8,5.2,0,9.4,1.6,12.7,4.8,3.3,3.2,4.9,7.8,4.9,13.6v24.7h-9.4Z"/>
        <path class="st1" d="M357.3,116.7c-3.8,0-7.2-.9-10.3-2.8-3.1-1.9-5.5-4.5-7.2-7.8-1.7-3.3-2.6-7.1-2.6-11.3s.9-8.1,2.6-11.3c1.8-3.3,4.2-5.9,7.3-7.7,3.1-1.8,6.5-2.7,10.3-2.7s7,.8,9.7,2.4c1.3.8,2.5,1.7,3.5,2.7v-4.5h9.5v42.4h-9.5v-4.6c-1.1,1-2.3,2-3.7,2.8-2.8,1.6-6.1,2.5-9.7,2.5ZM358.7,81.6c-2.2,0-4.2.5-6,1.5-1.8,1-3.2,2.5-4.3,4.5-1.1,2-1.6,4.4-1.6,7.1s.6,5.2,1.6,7.2c1.1,2,2.5,3.5,4.3,4.6,1.8,1,3.8,1.6,6,1.6s4.2-.5,6-1.6c1.8-1,3.3-2.6,4.3-4.6,1.1-2,1.6-4.4,1.6-7.2s-.5-5.1-1.6-7.1c-1.1-2-2.5-3.5-4.3-4.5-1.8-1-3.8-1.6-6-1.6Z"/>
        <path class="st1" d="M405.8,116.7c-3.8,0-7.2-.9-10.3-2.8-3.1-1.9-5.5-4.5-7.3-7.9-1.7-3.3-2.6-7.1-2.6-11.3s.9-8.1,2.6-11.3c1.8-3.3,4.2-5.9,7.3-7.7,3.1-1.8,6.6-2.7,10.4-2.7s6.4.8,9.3,2.3c1.5.8,2.8,1.7,4,2.8v-18.3h9.5v56.3h-9.5v-4.6c-1,1-2.2,2-3.6,2.8-2.8,1.6-6,2.5-9.7,2.5ZM407.1,81.6c-2.2,0-4.2.5-6,1.5-1.8,1-3.2,2.5-4.3,4.5-1.1,2-1.6,4.4-1.6,7.1s.5,5.2,1.6,7.2c1.1,2,2.5,3.5,4.3,4.6,1.8,1,3.8,1.6,6,1.6s4.2-.5,6-1.6c1.8-1,3.3-2.6,4.3-4.6,1.1-2,1.6-4.4,1.6-7.2s-.5-5.1-1.6-7.1c-1.1-2-2.5-3.5-4.3-4.5-1.8-1-3.8-1.6-6-1.6Z"/>
        <path class="st1" d="M473,83c-1.7-3.1-4.1-5.5-7.2-7.3-3.1-1.8-6.7-2.6-10.7-2.6s-7.7.9-10.9,2.7c-3.2,1.8-5.7,4.4-7.5,7.7-1.7,3.3-2.6,7.1-2.6,11.4s.9,8.2,2.7,11.5c1.8,3.3,4.3,5.9,7.5,7.7,3.2,1.8,6.8,2.7,10.8,2.7s9.3-1.3,12.7-3.9c3-2.2,5.1-5.1,6.4-8.5h-10.5c-.6.9-1.4,1.6-2.3,2.2-1.6,1.1-3.8,1.7-6.3,1.7s-5.7-1-7.9-2.9c-1.8-1.7-2.9-3.8-3.4-6.6h31.3v-1.3c.3-1.4.4-2.8.4-4.1,0-3.8-.8-7.3-2.5-10.4ZM444,90.5c.5-2.6,1.6-4.7,3.3-6.3,2.1-1.9,4.5-2.8,7.5-2.8s4,.4,5.7,1.3c1.7.8,2.9,2,3.9,3.6.8,1.2,1.2,2.7,1.4,4.3h-21.8Z"/>
      </g>
    </g>
  </g>
</svg>